
<svg id="Layer_1" data-name="Layer 1" xmlns="http://www.w3.org/2000/svg" xmlns:xlink="http://www.w3.org/1999/xlink" viewBox="0 0 281.27 271.12"><defs><style>.cls-1,.cls-3{fill:none;}.cls-2{fill:#fff;}.cls-3{stroke:#fff;stroke-linecap:round;stroke-width:3px;stroke-dasharray:8;}.cls-3,.cls-8{stroke-miterlimit:10;}.cls-4{fill:#3d9add;}.cls-5{clip-path:url(#clip-path);}.cls-6{fill:#a8a8a8;}.cls-7,.cls-8{fill:#262f36;}.cls-8{stroke:#a8a8a8;stroke-width:2px;}.cls-9{clip-path:url(#clip-path-2);}.cls-10{clip-path:url(#clip-path-3);}.cls-11{clip-path:url(#clip-path-4);}.cls-12{clip-path:url(#clip-path-5);}.cls-13{clip-path:url(#clip-path-6);}</style><clipPath id="clip-path" transform="translate(-161.08 -64.27)"><circle class="cls-1" cx="299.29" cy="207.87" r="66.92"/></clipPath><clipPath id="clip-path-2" transform="translate(-161.08 -64.27)"><circle class="cls-1" cx="299.29" cy="94.28" r="30.01"/></clipPath><clipPath id="clip-path-3" transform="translate(-161.08 -64.27)"><circle class="cls-2" cx="406.44" cy="170.31" r="30.01"/></clipPath><clipPath id="clip-path-4" transform="translate(-161.08 -64.27)"><circle class="cls-1" cx="191.1" cy="169.14" r="30.01"/></clipPath><clipPath id="clip-path-5" transform="translate(-161.08 -64.27)"><circle class="cls-2" cx="374" cy="298.73" r="30.01"/></clipPath><clipPath id="clip-path-6" transform="translate(-161.08 -64.27)"><circle class="cls-1" cx="228.8" cy="299.53" r="30.01"/></clipPath></defs><title>district</title><circle class="cls-3" cx="138.21" cy="143.6" r="116.86"/><circle class="cls-2" cx="138.21" cy="143.6" r="66.92"/><circle class="cls-2" cx="138.21" cy="30.01" r="30.01"/><circle class="cls-2" cx="191.1" cy="169.14" r="30.01" transform="translate(-189.9 234.35) rotate(-72)"/><circle class="cls-2" cx="228.8" cy="299.53" r="30.01" transform="translate(-309.1 244.31) rotate(-54)"/><circle class="cls-4" cx="374" cy="298.73" r="30.01" transform="translate(-265.25 212.61) rotate(-36)"/><circle class="cls-4" cx="406.64" cy="170.31" r="30.01" transform="translate(-193.81 69.72) rotate(-18)"/><g class="cls-5"><polygon class="cls-6" points="81.44 135.46 143.38 213.92 256.61 212.26 194.67 133.81 81.44 135.46"/></g><polygon class="cls-7" points="138.06 152.4 81.44 135.46 81.44 133.85 138.06 113.95 194.67 133.85 194.67 135.46 138.06 152.4"/><polygon class="cls-7" points="138.06 154.01 81.44 135.46 138.06 115.55 194.67 135.46 138.06 154.01"/><path class="cls-8" d="M332,223.07c-11.58-4.07-32,0-32,0s-20.45-4.07-32,0c0,0,3.2-17.5,3.94-21.56,3.2-4.07,17.86-6.4,28.09-6.4s24.89,2.34,28.09,6.4C328.84,205.57,332,223.07,332,223.07Z" transform="translate(-161.08 -64.27)"/><circle class="cls-7" cx="179.33" cy="143.09" r="1.18"/><rect class="cls-7" x="178.76" y="143.74" width="1.11" height="2.43"/><rect class="cls-7" x="178.76" y="140.06" width="1.11" height="2.43"/><path class="cls-7" d="M337.09,243.9s1.18-29.9,1.18-32.28,1.61-2.38,2.16-2.38,1.79.44,1.79,2.41.79,32.25.79,32.25Z" transform="translate(-161.08 -64.27)"/><g class="cls-9"><polyline class="cls-6" points="156.62 28.49 156.62 43.73 118.24 43.76 135.44 65.63 173.82 50.37"/></g><circle class="cls-2" cx="245.36" cy="106.04" r="30.01"/><g class="cls-10"><polyline class="cls-6" points="264.06 102.6 263.1 104.44 262.91 119.64 226.59 119.66 243.79 141.53 281.26 124.48"/></g><g class="cls-11"><polygon class="cls-6" points="63.98 128.97 29.29 141.53 12.08 119.66 46.77 118.99 46.77 107.1 63.98 128.97"/></g><circle class="cls-2" cx="212.91" cy="234.46" r="30.01"/><g class="cls-12"><polygon class="cls-6" points="249.57 251.16 211.81 271.12 194.61 249.25 228.85 248.68 229.69 227.93 249.57 251.16"/></g><g class="cls-13"><polygon class="cls-6" points="103.1 256.99 65.45 270.29 48.25 248.42 82.5 247.84 83.22 233.76 103.1 256.99"/></g><path class="cls-7" d="M299.23,81.3,289.85,89v19.27h18.77V89Zm-12.06,8.34,12.06-9.9,12.15,9.92a.81.81,0,0,0,1.16-.15h0a.81.81,0,0,0-.14-1.1L299.23,77.67,286.16,88.4a.81.81,0,0,0-.15,1.09h0A.81.81,0,0,0,287.18,89.65Zm11.5,17.27h-3V99.74a3.35,3.35,0,0,1,.07-.69,3.6,3.6,0,0,1,2.95-2.85Zm0-13.33A3.43,3.43,0,0,1,295.9,91h2.77Zm0-4h-2.82a3.43,3.43,0,0,1,2.82-2.81ZM300,86.85a3.43,3.43,0,0,1,2.66,2.78H300ZM300,91h2.61A3.43,3.43,0,0,1,300,93.56Zm2.94,15.91H300V96.22a3.58,3.58,0,0,1,2.81,2.83h.13Z" transform="translate(-161.08 -64.27)"/><path class="cls-7" d="M295.73,99.05a3.35,3.35,0,0,0-.07.69v-.69Z" transform="translate(-161.08 -64.27)"/><path class="cls-7" d="M302.57,91a3.21,3.21,0,0,0,.1-.81V91Z" transform="translate(-161.08 -64.27)"/><path class="cls-7" d="M309.79,92.77V108h7.91V92.77Zm3.64,9.83h-1.63V100h1.63Zm0-4.72h-1.63V95.24h1.63Zm2.28,4.72h-1.63V100h1.63Zm0-4.72h-1.63V95.24h1.63Z" transform="translate(-161.08 -64.27)"/><path class="cls-7" d="M281.14,92.77V108H289V92.77Zm3.64,9.83h-1.63V100h1.63Zm0-4.72h-1.63V95.24h1.63Zm2.28,4.72h-1.63V100h1.63Zm0-4.72h-1.63V95.24h1.63Z" transform="translate(-161.08 -64.27)"/><rect class="cls-7" x="117.89" y="42.64" width="40.55" height="1.32" rx="0.66" ry="0.66"/><path class="cls-7" d="M306.4,71.48v4.08s-1.32-1.27-3.55.1-3.06.18-3.06.18v2.54h-1V71.29a.48.48,0,0,1,1,0v.34a2.71,2.71,0,0,0,3.11-.16A2.79,2.79,0,0,1,306.4,71.48Z" transform="translate(-161.08 -64.27)"/><path class="cls-7" d="M180.45,158.19l-6.26,3.58v21.5h12.51v-21.5Zm-.25,24.93h-3v-7.75a.69.69,0,0,1,0-.15,3.58,3.58,0,0,1,3-3.4Zm-2.45-19.67a2.69,2.69,0,1,1,2.69,2.69A2.69,2.69,0,0,1,177.76,163.46Zm6.61,19.67h-2.93V171.85a3.57,3.57,0,0,1,2.92,3.38.69.69,0,0,1,0,.15Z" transform="translate(-161.08 -64.27)"/><polygon class="cls-7" points="10.57 95.13 19.36 90.1 28.16 95.13 26.93 97.2 19.36 92.88 11.8 97.21 10.57 95.13"/><rect class="cls-7" x="18.86" y="96.99" width="1.08" height="2.91" rx="0.54" ry="0.54"/><path class="cls-7" d="M187.26,149.14v3.93s-1.27-1.23-3.43.1-3,.18-3,.18v2.45h-.93V149a.46.46,0,0,1,.93,0v.33a2.61,2.61,0,0,0,3-.15A2.69,2.69,0,0,1,187.26,149.14Z" transform="translate(-161.08 -64.27)"/><polygon class="cls-7" points="49.15 105.89 26.93 105.89 26.93 101.39 44.64 101.39 49.15 105.89"/><path class="cls-7" d="M188,171.37v11.89h19.85V171.37Zm3.18,8.31h-1.31v-2.21h1.31Zm0-4.31h-1.31v-2.2h1.31Zm1.86,4.31h-1.31v-2.21H193Zm0-4.31h-1.31v-2.2H193Zm4.22,4.31H196v-2.21h1.31Zm0-4.31H196v-2.2h1.31Zm1.86,4.31h-1.31v-2.21h1.31Zm0-4.31h-1.31v-2.2h1.31Zm4.22,4.31H202v-2.21h1.31Zm0-4.31H202v-2.2h1.31Zm1.86,4.31h-1.32v-2.21h1.32Zm0-4.31h-1.32v-2.2h1.32Z" transform="translate(-161.08 -64.27)"/><rect class="cls-7" x="12.08" y="118.85" width="36.17" height="1.22" rx="0.61" ry="0.61"/><path class="cls-7" d="M398.31,153.64v1.66H399v27.37h17V155.3h.85v-1.66ZM403.82,181h-1.75v-1.75h1.75Zm0-2.4h-1.75v-1.75h1.75Zm0-3.46h-1.75v-1.75h1.75Zm0-2.41h-1.75V171h1.75Zm0-3.46h-1.75v-1.76h1.75Zm0-2.41h-1.75v-1.75h1.75ZM406,181h-1.75v-1.75H406Zm0-2.4h-1.75v-1.75H406Zm0-3.46h-1.75v-1.75H406Zm0-2.41h-1.75V171H406Zm0-3.46h-1.75v-1.76H406Zm0-2.41h-1.75v-1.75H406Zm1.52-4.06a3.19,3.19,0,1,1,3.2-3.2A3.19,3.19,0,0,1,407.55,162.82Zm4.07,18.2h-1.75v-1.75h1.75Zm0-2.4h-1.75v-1.75h1.75Zm0-3.46h-1.75v-1.75h1.75Zm0-2.41h-1.75V171h1.75Zm0-3.46h-1.75v-1.76h1.75Zm0-2.41h-1.75v-1.75h1.75ZM413.83,181h-1.75v-1.75h1.75Zm0-2.4h-1.75v-1.75h1.75Zm0-3.46h-1.75v-1.75h1.75Zm0-2.41h-1.75V171h1.75Zm0-3.46h-1.75v-1.76h1.75Zm0-2.41h-1.75v-1.75h1.75Z" transform="translate(-161.08 -64.27)"/><path class="cls-7" d="M417.3,166.87v15.79h6.88v-14h1v-1.83ZM420.38,181h-1.75v-1.75h1.75Zm0-2.4h-1.75v-1.75h1.75Zm0-3.46h-1.75v-1.75h1.75Zm0-2.41h-1.75V171h1.75Zm2.21,8.27h-1.75v-1.75h1.75Zm0-2.4h-1.75v-1.75h1.75Zm0-3.46h-1.75v-1.75h1.75Zm0-2.41h-1.75V171h1.75Z" transform="translate(-161.08 -64.27)"/><path class="cls-7" d="M389.83,166.87v1.9h1v13.89h7.08V166.87ZM394.15,181H392.4v-1.75h1.75Zm0-2.4H392.4v-1.75h1.75Zm0-3.46H392.4v-1.75h1.75Zm0-2.41H392.4V171h1.75Zm2.21,8.27h-1.75v-1.75h1.75Zm0-2.4h-1.75v-1.75h1.75Zm0-3.46h-1.75v-1.75h1.75Zm0-2.41h-1.75V171h1.75Z" transform="translate(-161.08 -64.27)"/><rect class="cls-7" x="245.85" y="92.7" width="1.2" height="3.21" rx="0.6" ry="0.6"/><path class="cls-7" d="M414.36,147.06v3.89s-1.26-1.21-3.39.1-2.92.17-2.92.17v2.42h-.92v-6.75a.46.46,0,0,1,.92,0v.32a2.58,2.58,0,0,0,3-.15A2.66,2.66,0,0,1,414.36,147.06Z" transform="translate(-161.08 -64.27)"/><rect class="cls-7" x="226.14" y="118.4" width="40.6" height="1.3" rx="0.65" ry="0.65"/><path class="cls-7" d="M388,286.52h-9.74a3.84,3.84,0,0,0-7.16,0H361.7l1.08-3.77h24.11Z" transform="translate(-161.08 -64.27)"/><path class="cls-7" d="M393.61,291.17H376.79l-2.15.57-2.17-.57H356.06l1.54-3.77h13.09s-.12,4.33,4,4.33,3.77-4.33,3.77-4.33h13.66Z" transform="translate(-161.08 -64.27)"/><path class="cls-7" d="M374.64,283.53a4.43,4.43,0,1,0,4.43,4.43A4.43,4.43,0,0,0,374.64,283.53Zm0,7.63a3.2,3.2,0,1,1,3.2-3.2A3.2,3.2,0,0,1,374.64,291.16Z" transform="translate(-161.08 -64.27)"/><path class="cls-7" d="M359,292.2v20.75h31.73V292.2Zm5.55,16.37h-2.28V306.3h2.28Zm0-3.22h-2.28v-2.27h2.28Zm0-5.65h-2.28v-2.28h2.28Zm0-3.22h-2.28V294.2h2.28ZM368,308.57h-2.27V306.3H368Zm0-3.22h-2.27v-2.27H368Zm0-5.65h-2.27v-2.28H368Zm0-3.22h-2.27V294.2H368Zm6.2,12.09H372V306.3h2.28Zm0-3.22H372v-2.27h2.28Zm0-5.65H372v-2.28h2.28Zm0-3.22H372V294.2h2.28Zm3.45,12.09h-2.27V306.3h2.27Zm0-3.22h-2.27v-2.27h2.27Zm0-5.65h-2.27v-2.28h2.27Zm0-3.22h-2.27V294.2h2.27Zm6.2,12.09h-2.28V306.3h2.28Zm0-3.22h-2.28v-2.27h2.28Zm0-5.65h-2.28v-2.28h2.28Zm0-3.22h-2.28V294.2h2.28Zm3.45,12.09h-2.28V306.3h2.28Zm0-3.22h-2.28v-2.27h2.28Zm0-5.65h-2.28v-2.28h2.28Zm0-3.22h-2.28V294.2h2.28Z" transform="translate(-161.08 -64.27)"/><rect class="cls-7" x="213.16" y="221.18" width="1.39" height="3.18" rx="0.7" ry="0.7"/><rect class="cls-7" x="194.44" y="248.31" width="38.62" height="1.25" rx="0.62" ry="0.62"/><path class="cls-7" d="M382.08,275.61v4.22s-1.37-1.32-3.68.11-3.17.19-3.17.19v2.63h-1v-7.33a.5.5,0,0,1,1,0v.35a2.8,2.8,0,0,0,3.22-.16C379.91,274.73,381.14,274.81,382.08,275.61Z" transform="translate(-161.08 -64.27)"/><path class="cls-7" d="M232.82,287.84a3.94,3.94,0,0,0-7.83,0,4,4,0,0,0,0,.48,3.94,3.94,0,0,0,7.89,0A4,4,0,0,0,232.82,287.84Zm-3.91,3.26a2.78,2.78,0,0,1-2.78-2.78,2.61,2.61,0,0,1,0-.48,2.78,2.78,0,0,1,5.47,0,2.61,2.61,0,0,1,0,.48A2.78,2.78,0,0,1,228.91,291.1Z" transform="translate(-161.08 -64.27)"/><path class="cls-7" d="M217.86,286.94h8a3.36,3.36,0,0,1,3-1.83,4.54,4.54,0,0,1,3.16,1.83h7.84v-2.76h-22Z" transform="translate(-161.08 -64.27)"/><path class="cls-7" d="M231.64,287.84a2.61,2.61,0,0,1,0,.48,2.78,2.78,0,1,1-5.56,0,2.61,2.61,0,0,1,0-.48H220v24.27h18.19V287.84Zm-8.06,21.8h-1.45v-4.7h1.45Zm0-5.65h-1.45v-4.7h1.45Zm0-5.65h-1.45v-4.7h1.45Zm2.51,11.31h-1.45v-4.7h1.45Zm0-5.65h-1.45v-4.7h1.45Zm0-5.65h-1.45v-4.7h1.45Zm2.5,11.31h-1.45v-4.7h1.45Zm0-5.65h-1.45v-4.7h1.45Zm0-5.65h-1.45v-4.7h1.45Zm2.5,11.31h-1.45v-4.7h1.45Zm0-5.65h-1.45v-4.7h1.45Zm0-5.65h-1.45v-4.7h1.45Zm2.5,11.31h-1.45v-4.7h1.45Zm0-5.65h-1.45v-4.7h1.45Zm0-5.65h-1.45v-4.7h1.45Zm2.5,11.31h-1.45v-4.7h1.45Zm0-5.65h-1.45v-4.7h1.45Zm0-5.65h-1.45v-4.7h1.45Z" transform="translate(-161.08 -64.27)"/><path class="cls-7" d="M239.06,298v14.15h5.37V298Zm3.41,11.68H241v-4.7h1.45Zm0-5.65H241v-4.7h1.45Z" transform="translate(-161.08 -64.27)"/><rect class="cls-7" x="77.97" y="230.6" width="7" height="2.24"/><path class="cls-7" d="M213.88,298v14.15h5.37V298Zm3.24,11.68h-1.45v-4.7h1.45Zm0-5.65h-1.45v-4.7h1.45Z" transform="translate(-161.08 -64.27)"/><rect class="cls-7" x="51.09" y="230.6" width="7" height="2.24"/><rect class="cls-7" x="67.24" y="221.7" width="1.18" height="2.96" rx="0.59" ry="0.59"/><rect class="cls-7" x="48.08" y="247.44" width="39.86" height="1.22" rx="0.61" ry="0.61"/><path class="cls-7" d="M235.69,277.93v3.81s-1.23-1.19-3.32.1-2.86.17-2.86.17v2.37h-.9v-6.62a.45.45,0,0,1,.9,0v.32a2.53,2.53,0,0,0,2.91-.15A2.61,2.61,0,0,1,235.69,277.93Z" transform="translate(-161.08 -64.27)"/></svg>