
<svg id="Layer_1" data-name="Layer 1" xmlns="http://www.w3.org/2000/svg" viewBox="0 0 157 149.09"><defs><style>.cls-1{fill:#389aff;}.cls-2{fill:#76baff;}</style></defs><title>badge</title><path class="cls-1" d="M171.66,13.41C165.92,2.1,154.55,4,151.29,6c-.14-1.82-.34-3.51-.56-5.08H95.07V150h28.08V136.21h-10v-9.69H103V92.59a88,88,0,0,0,26.55-19.46C170.25,57.77,177.76,25.44,171.66,13.41Zm-8.79,27c-10.37,18-25.24,22.29-25.24,22.29,11-16.83,14-35.37,14-49.49C163.5,6.72,175.13,19.24,162.88,40.43Z" transform="translate(-16.53 -0.91)"/><path class="cls-2" d="M60.52,73.14A88,88,0,0,0,87.07,92.59v33.92H76.87v9.69h-10V150H95V.91H39.33c-.22,1.56-.42,3.26-.56,5.08C35.51,4,24.13,2.1,18.4,13.41,12.3,25.44,19.81,57.77,60.52,73.14ZM38.46,13.22c0,14.13,3,32.67,14,49.49,0,0-14.86-4.32-25.24-22.29C14.92,19.24,26.56,6.72,38.46,13.22Z" transform="translate(-16.53 -0.91)"/></svg>