<svg xmlns="http://www.w3.org/2000/svg" id="Layer_1" data-name="Layer 1" viewBox="0 0 250 123.57"><defs><style>.cls-1{fill:#389aff;}.cls-2{fill:#fff;}</style></defs><title>hands</title><rect class="cls-1" width="250" height="86.65" rx="1.64" ry="1.64"/><rect class="cls-2" x="4.28" y="5.18" width="12.56" height="12.56" rx="1.64" ry="1.64"/><rect class="cls-2" x="20.61" y="5.18" width="12.56" height="12.56" rx="1.64" ry="1.64"/><rect class="cls-2" x="36.94" y="5.18" width="12.56" height="12.56" rx="1.64" ry="1.64"/><rect class="cls-2" x="53.27" y="5.18" width="12.56" height="12.56" rx="1.64" ry="1.64"/><rect class="cls-2" x="69.61" y="5.18" width="12.56" height="12.56" rx="1.64" ry="1.64"/><rect class="cls-2" x="85.94" y="5.18" width="12.56" height="12.56" rx="1.64" ry="1.64"/><rect class="cls-2" x="102.27" y="5.18" width="12.56" height="12.56" rx="1.64" ry="1.64"/><rect class="cls-2" x="118.6" y="5.18" width="12.56" height="12.56" rx="1.64" ry="1.64"/><rect class="cls-2" x="134.93" y="5.18" width="12.56" height="12.56" rx="1.64" ry="1.64"/><rect class="cls-2" x="151.26" y="5.18" width="12.56" height="12.56" rx="1.64" ry="1.64"/><rect class="cls-2" x="167.59" y="5.18" width="12.56" height="12.56" rx="1.64" ry="1.64"/><rect class="cls-2" x="183.92" y="5.18" width="12.56" height="12.56" rx="1.64" ry="1.64"/><rect class="cls-2" x="200.25" y="5.18" width="12.56" height="12.56" rx="1.64" ry="1.64"/><rect class="cls-2" x="216.58" y="5.18" width="12.56" height="12.56" rx="1.64" ry="1.64"/><rect class="cls-2" x="232.92" y="5.18" width="12.56" height="12.56" rx="1.64" ry="1.64"/><rect class="cls-2" x="4.28" y="21.34" width="21.87" height="12.56" rx="1.64" ry="1.64"/><rect class="cls-2" x="29.93" y="21.34" width="12.56" height="12.56" rx="1.64" ry="1.64"/><rect class="cls-2" x="46.26" y="21.34" width="12.56" height="12.56" rx="1.64" ry="1.64"/><rect class="cls-2" x="62.59" y="21.34" width="12.56" height="12.56" rx="1.64" ry="1.64"/><rect class="cls-2" x="78.92" y="21.34" width="12.56" height="12.56" rx="1.64" ry="1.64"/><rect class="cls-2" x="95.25" y="21.34" width="12.56" height="12.56" rx="1.64" ry="1.64"/><rect class="cls-2" x="111.58" y="21.34" width="12.56" height="12.56" rx="1.64" ry="1.64"/><rect class="cls-2" x="127.91" y="21.34" width="12.56" height="12.56" rx="1.64" ry="1.64"/><rect class="cls-2" x="144.24" y="21.34" width="12.56" height="12.56" rx="1.64" ry="1.64"/><rect class="cls-2" x="160.57" y="21.34" width="12.56" height="12.56" rx="1.64" ry="1.64"/><rect class="cls-2" x="176.9" y="21.34" width="12.56" height="12.56" rx="1.64" ry="1.64"/><rect class="cls-2" x="193.24" y="21.34" width="12.56" height="12.56" rx="1.64" ry="1.64"/><rect class="cls-2" x="209.57" y="21.34" width="12.56" height="12.56" rx="1.64" ry="1.64"/><rect class="cls-2" x="225.9" y="21.34" width="19.57" height="12.56" rx="1.64" ry="1.64"/><rect class="cls-2" x="4.28" y="37.5" width="12.56" height="12.56" rx="1.64" ry="1.64"/><rect class="cls-2" x="20.61" y="37.5" width="12.56" height="12.56" rx="1.64" ry="1.64"/><rect class="cls-2" x="36.94" y="37.5" width="12.56" height="12.56" rx="1.64" ry="1.64"/><rect class="cls-2" x="53.27" y="37.5" width="12.56" height="12.56" rx="1.64" ry="1.64"/><rect class="cls-2" x="69.61" y="37.5" width="12.56" height="12.56" rx="1.64" ry="1.64"/><rect class="cls-2" x="85.94" y="37.5" width="12.56" height="12.56" rx="1.64" ry="1.64"/><rect class="cls-2" x="102.27" y="37.5" width="12.56" height="12.56" rx="1.64" ry="1.64"/><rect class="cls-2" x="118.6" y="37.5" width="12.56" height="12.56" rx="1.64" ry="1.64"/><rect class="cls-2" x="134.93" y="37.5" width="12.56" height="12.56" rx="1.64" ry="1.64"/><rect class="cls-2" x="151.26" y="37.5" width="12.56" height="12.56" rx="1.64" ry="1.64"/><rect class="cls-2" x="167.59" y="37.5" width="12.56" height="12.56" rx="1.64" ry="1.64"/><rect class="cls-2" x="183.92" y="37.5" width="12.56" height="12.56" rx="1.64" ry="1.64"/><rect class="cls-2" x="200.25" y="37.5" width="12.56" height="12.56" rx="1.64" ry="1.64"/><rect class="cls-2" x="216.58" y="37.5" width="28.89" height="12.56" rx="1.64" ry="1.64"/><rect class="cls-2" x="4.28" y="53.66" width="21.87" height="12.56" rx="1.64" ry="1.64"/><rect class="cls-2" x="29.93" y="53.66" width="12.56" height="12.56" rx="1.64" ry="1.64"/><rect class="cls-2" x="46.26" y="53.66" width="12.56" height="12.56" rx="1.64" ry="1.64"/><rect class="cls-2" x="62.59" y="53.66" width="12.56" height="12.56" rx="1.64" ry="1.64"/><rect class="cls-2" x="78.92" y="53.66" width="12.56" height="12.56" rx="1.64" ry="1.64"/><rect class="cls-2" x="95.25" y="53.66" width="12.56" height="12.56" rx="1.64" ry="1.64"/><rect class="cls-2" x="111.58" y="53.66" width="12.56" height="12.56" rx="1.64" ry="1.64"/><rect class="cls-2" x="127.91" y="53.66" width="12.56" height="12.56" rx="1.64" ry="1.64"/><rect class="cls-2" x="144.24" y="53.66" width="12.56" height="12.56" rx="1.64" ry="1.64"/><rect class="cls-2" x="160.57" y="53.66" width="12.56" height="12.56" rx="1.64" ry="1.64"/><rect class="cls-2" x="176.9" y="53.66" width="12.56" height="12.56" rx="1.64" ry="1.64"/><rect class="cls-2" x="193.24" y="53.66" width="12.56" height="12.56" rx="1.64" ry="1.64"/><rect class="cls-2" x="209.57" y="53.66" width="35.91" height="12.56" rx="1.64" ry="1.64"/><rect class="cls-2" x="4.28" y="69.82" width="12.56" height="12.56" rx="1.64" ry="1.64"/><rect class="cls-2" x="20.61" y="69.82" width="12.56" height="12.56" rx="1.64" ry="1.64"/><rect class="cls-2" x="36.94" y="69.82" width="12.56" height="12.56" rx="1.64" ry="1.64"/><rect class="cls-2" x="53.27" y="69.82" width="12.56" height="12.56" rx="1.64" ry="1.64"/><rect class="cls-2" x="69.61" y="69.82" width="94.21" height="12.56" rx="1.64" ry="1.64"/><rect class="cls-2" x="167.59" y="69.82" width="12.56" height="12.56" rx="1.64" ry="1.64"/><rect class="cls-2" x="183.92" y="69.82" width="12.56" height="12.56" rx="1.64" ry="1.64"/><rect class="cls-2" x="200.25" y="69.82" width="12.56" height="12.56" rx="1.64" ry="1.64"/><rect class="cls-2" x="216.58" y="69.82" width="12.56" height="12.56" rx="1.64" ry="1.64"/><rect class="cls-2" x="232.92" y="69.82" width="12.56" height="12.56" rx="1.64" ry="1.64"/><path class="cls-1" d="M116.74,112.35c.22-6.08,4.69-16.31,22.92-5.44,3.33-4.78-4.8-43.17-4.8-48.29s2.88-8.32,5.6-8.63,7.19,2.56,7.83,5.76,3.84,25.41,3.84,25.41,1.28,1.74,1.64,0c0,0-1.64-6.66-1.64-10.12s4.55-5.28,6.56-5.47,6.36,1.86,6.53,3.78,1,10.46,1,10.46a1,1,0,0,0,1.48-.09s-.44-7.15,0-8.63,3.66-4.36,6.71-4.1,5.93,2.27,6.1,3.92.7,9.67,1.22,10.24,1.39,1.26,1.74.48,0-4.18.52-6.1,4.1-3.57,6.62-2.79,3.75,2.61,4.1,5.23,2.33,22.43,1.4,29.84-4.76,22.63-22.76,25.14-29.11-6.88-36.25-12.7S116.74,112.35,116.74,112.35Z" transform="translate(0 -11.96)"/><path class="cls-1" d="M116.46,114.51c-.22-6.08-4.69-16.31-22.92-5.44-3.33-4.78,4.8-43.17,4.8-48.29s-2.88-8.32-5.6-8.63S85.54,54.7,84.9,57.9s-3.84,25.41-3.84,25.41-1.28,1.74-1.64,0c0,0,1.64-6.66,1.64-10.12s-4.55-5.28-6.56-5.47S68.14,69.59,68,71.5s-1,10.46-1,10.46a1,1,0,0,1-1.48-.09s.44-7.15,0-8.63-3.66-4.36-6.71-4.1-5.93,2.27-6.1,3.92-.7,9.67-1.22,10.24-1.39,1.26-1.74.48,0-4.18-.52-6.1S45,74.12,42.52,74.9s-3.75,2.61-4.1,5.23S36.1,102.56,37,110s4.76,22.63,22.76,25.14,29.11-6.88,36.25-12.7S116.46,114.51,116.46,114.51Z" transform="translate(0 -11.96)"/></svg>