
<svg id="Layer_1" data-name="Layer 1" xmlns="http://www.w3.org/2000/svg" viewBox="0 0 86.72 103.18"><defs><style>.cls-1{fill:#389aff;}.cls-2{fill:#76baff;}</style></defs><title>accessibility</title><circle class="cls-1" cx="43.36" cy="11.77" r="11.77"/><path class="cls-1" d="M139.26,39.91a3.75,3.75,0,0,1-3.55,3.75l-27.53,1.52A5.44,5.44,0,0,0,103,51.1c.72,7.9,2.09,22.07,3.42,28.66,1.39,7,6.46,21,9,27.92a4.59,4.59,0,0,1-8.6,3.17C104,103,98.37,87.07,97,78l-1.06-.13L94.84,78c-1.4,9.06-7,25-9.9,32.84a4.59,4.59,0,1,1-8.6-3.17c2.54-6.87,7.61-21,9-27.92C86.65,73.16,88,59,88.76,51.1a5.44,5.44,0,0,0-5.13-5.92L56.1,43.66a3.76,3.76,0,0,1,.2-7.51h.22c7.69.45,25.1,1.36,39.38,1.36s31.7-.91,39.38-1.36h.22A3.76,3.76,0,0,1,139.26,39.91Z" transform="translate(-52.54 -10.65)"/><path class="cls-2" d="M96.55,10.68v23.5l-.65,0a11.77,11.77,0,1,1,0-23.54Z" transform="translate(-52.54 -10.65)"/><path class="cls-2" d="M96.55,37.52V77.95l-.64-.08L94.84,78c-1.4,9.07-7,25-9.9,32.84A4.59,4.59,0,0,1,76,109.26a4.42,4.42,0,0,1,.29-1.59c2.54-6.87,7.61-21,9-27.92C86.66,73.16,88,59,88.76,51.1a5.44,5.44,0,0,0-5.13-5.92L56.1,43.66a3.76,3.76,0,0,1,.2-7.51h.22c7.69.45,25.1,1.36,39.39,1.36Z" transform="translate(-52.54 -10.65)"/><path class="cls-2" d="M96.55,10.68v23.5l-.65,0a11.77,11.77,0,1,1,0-23.54Z" transform="translate(-52.54 -10.65)"/><path class="cls-2" d="M95.91,37.52h.64V77.95l-.64-.08L94.84,78c-1.4,9.07-7,25-9.9,32.84A4.59,4.59,0,0,1,76,109.26a4.42,4.42,0,0,1,.29-1.59c2.54-6.87,7.61-21,9-27.92C86.66,73.16,88,59,88.76,51.1a5.44,5.44,0,0,0-5.13-5.92L56.1,43.66a3.76,3.76,0,0,1,.2-7.51h.22C64.21,36.61,81.62,37.52,95.91,37.52Z" transform="translate(-52.54 -10.65)"/></svg>