
<svg id="Layer_1" data-name="Layer 1" xmlns="http://www.w3.org/2000/svg" viewBox="0 0 107.07 69.57"><defs><style>.cls-1{fill:none;stroke:#76baff;stroke-linecap:round;stroke-miterlimit:10;stroke-width:3px;}.cls-2{fill:#389aff;}</style></defs><title>voice-over</title><path class="cls-1" d="M153.39,62.25c2.8,6.06,4.65,16.73,0,25.29" transform="translate(-71.03 -40.16)"/><path class="cls-1" d="M159.65,51.56c6.52,10,9.11,31.69,0,47.39" transform="translate(-71.03 -40.16)"/><path class="cls-1" d="M167.54,42.29c9.09,14.7,14.74,40.36,0,65.94" transform="translate(-71.03 -40.16)"/><path class="cls-2" d="M138.53,78.53l-4.67.46V68.31l4.67.46a2,2,0,0,1,1.76,1.94v5.87A2,2,0,0,1,138.53,78.53Z" transform="translate(-71.03 -40.16)"/><path class="cls-2" d="M97.16,85.29l-8,23.22a1.75,1.75,0,0,1-1.66,1.18H81.64a1.75,1.75,0,0,1-1.71-2.13l5-22.63Z" transform="translate(-71.03 -40.16)"/><path class="cls-2" d="M83.46,85.78A12.43,12.43,0,0,1,71,73.35c0-6.87,5.58-12,12.43-12.43,9-.6,30.78,6.9,50.76-20.76v66.43C120.66,88.76,112.21,85.78,83.46,85.78Z" transform="translate(-71.03 -40.16)"/><rect class="cls-2" x="12.61" y="21.38" width="14.86" height="23.94"/></svg>