<svg xmlns="http://www.w3.org/2000/svg" id="Layer_1" data-name="Layer 1" viewBox="0 0 88.52 29.75"><defs><style>.cls-1{fill:#389aff;}</style></defs><title>stars</title><polygon class="cls-1" points="9.76 11.18 12.78 17.3 19.52 18.28 14.64 23.03 15.79 29.75 9.76 26.58 3.73 29.75 4.88 23.03 0 18.28 6.75 17.3 9.76 11.18"/><polygon class="cls-1" points="26.26 3.71 29.27 9.82 36.02 10.8 31.14 15.56 32.29 22.28 26.26 19.11 20.22 22.28 21.38 15.56 16.49 10.8 23.24 9.82 26.26 3.71"/><polygon class="cls-1" points="44.2 0 47.22 6.11 53.96 7.09 49.08 11.85 50.23 18.57 44.2 15.4 38.17 18.57 39.32 11.85 34.44 7.09 41.19 6.11 44.2 0"/><polygon class="cls-1" points="62.15 3.71 65.16 9.82 71.91 10.8 67.03 15.56 68.18 22.28 62.15 19.11 56.11 22.28 57.27 15.56 52.38 10.8 59.13 9.82 62.15 3.71"/><polygon class="cls-1" points="78.76 11.18 81.78 17.3 88.52 18.28 83.64 23.03 84.79 29.75 78.76 26.58 72.73 29.75 73.88 23.03 69 18.28 75.74 17.3 78.76 11.18"/></svg>